<svg viewBox="0 0 225.13 47.55" xmlns="http://www.w3.org/2000/svg" id="Layer_1"><defs><style>.cls-1{fill:#fff;}</style></defs><g id="Long_Logo"><path d="M36.59,37.53l3.69,6.4h-7.39l3.69-6.4ZM44.91,37.47l3.74,6.47h-7.47l3.73-6.47ZM23.27,28.95l7.05,12.22-1.6,2.76h-1l-4.45-7.7-4.44,7.7h-4.21l8.65-14.98ZM25.35,25.35l2.1-3.63,7.05,12.21-2.1,3.63-7.05-12.21ZM27.45,7.23l15.37,26.63-2.09,3.63-13.28-23-17,29.45h-4.19L27.45,7.23ZM27.45,0L0,47.55h54.91L27.45,0Z" class="cls-1"></path><path d="M65.58,14.19v3.41c0,.23-.2.4-.43.4h-3.67v15.54c-.03.2-.2.35-.4.35h-3.41c-.2,0-.38-.15-.4-.35v-15.54h-3.67c-.23,0-.43-.17-.43-.4v-3.41c0-.23.2-.43.43-.43h11.56c.23,0,.43.2.43.43" class="cls-1"></path><path d="M80.03,14.1v19.38c0,.23-.17.4-.4.4h-3.44c-.2,0-.4-.17-.4-.4v-7.57h-4.33v7.57c0,.23-.2.4-.4.4h-3.44c-.23,0-.4-.17-.4-.4V14.1c0-.23.17-.4.4-.4h3.44c.2,0,.4.17.4.4v7.57h4.33v-7.57c0-.23.2-.4.4-.4h3.44c.23,0,.4.17.4.4" class="cls-1"></path><path d="M86.15,21.67h5.11c.23,0,.4.17.4.4v3.44c0,.23-.17.4-.4.4h-5.11v3.73h6.67c.2,0,.4.17.4.4v3.44c0,.23-.2.41-.4.41h-10.51c-.23,0-.4-.17-.4-.41V14.1c0-.23.17-.4.4-.4h10.51c.2,0,.4.17.4.4v3.44c0,.23-.2.4-.4.4h-6.67v3.73Z" class="cls-1"></path><path d="M109.92,26.49c-.23,0-.4-.2-.4-.41v-3.44c0-.23.17-.4.4-.4h5.72c.23,0,.43.17.43.4v8.78h-.03c-.03.14-.11.35-.29.52l-1.62,1.62c-.35.35-.75.32-.75.32h-7.48s-.4.03-.75-.32l-1.62-1.62c-.35-.35-.29-.75-.29-.75l-.03-.03v-14.79h.03s-.06-.4.29-.75l1.62-1.62c.35-.35.75-.32.75-.32h7.48s.4-.03.75.32l1.62,1.62c.35.35.32.75.32.75h-.03l.03.03v3.06c0,.2-.2.41-.43.41h-3.41c-.23,0-.4-.2-.4-.41v-.75s0-.12-.09-.2l-.49-.49c-.06-.09-.15-.09-.2-.09h-2.8c-.06,0-.11,0-.2.09l-.46.49c-.12.09-.12.2-.12.2v10.31c.03.06.03.12.12.2l.38.4h3.38l.4-.4c.06-.09.09-.15.09-.2v-2.54h-1.91Z" class="cls-1"></path><path d="M130.32,23.78s.06.4-.29.75l-1.65,1.65-.09.06,2.95,7.25c.06.2-.2.4-.4.4h-3.87c-.23,0-.43-.2-.52-.4l-2.83-7.02h-1.33v7.02c0,.2-.17.4-.4.4h-3.44c-.2,0-.4-.2-.4-.4V14.1c0-.23.2-.4.4-.4h9.19s.4-.06.75.29l1.65,1.65c.35.35.29.81.29.81v7.34ZM122.29,22.22h3.03s.12,0,.2-.09l.46-.46c.12-.11.09-.23.09-.23v-2.71s.03-.12-.09-.23l-.46-.46c-.11-.12-.23-.09-.23-.09h-3v4.27Z" class="cls-1"></path><path d="M136.64,21.67h5.11c.23,0,.4.17.4.4v3.44c0,.23-.17.4-.4.4h-5.11v3.73h6.67c.2,0,.4.17.4.4v3.44c0,.23-.2.41-.4.41h-10.51c-.23,0-.4-.17-.4-.41V14.1c0-.23.17-.4.4-.4h10.51c.2,0,.4.17.4.4v3.44c0,.23-.2.4-.4.4h-6.67v3.73Z" class="cls-1"></path><path d="M160.53,33.48c.06.2-.2.4-.43.4h-3.29c-.23,0-.43-.2-.52-.4l-.69-2.34h-5.81l-.69,2.34c-.09.2-.29.4-.52.4h-3.29c-.23,0-.49-.2-.43-.4l5.72-19.36v-.03c.12-.26.2-.4.4-.4h3.44c.2,0,.32.14.4.4v.03c1.91,6.44,3.81,12.91,5.72,19.36M154.44,27.24l-1.73-5.92-1.76,5.92h3.49Z" class="cls-1"></path><path d="M170.39,14.19v3.41c0,.23-.2.4-.43.4h-3.67v15.54c-.03.2-.2.35-.4.35h-3.41c-.2,0-.38-.15-.4-.35v-15.54h-3.67c-.23,0-.43-.17-.43-.4v-3.41c0-.23.2-.43.43-.43h11.56c.23,0,.43.2.43.43" class="cls-1"></path><path d="M192.51,23.72l-.03.03h.03s.03.4-.32.75l-1.62,1.65c-.35.35-.75.29-.75.29h-5.34v7.02c0,.2-.2.4-.43.4h-3.41c-.23,0-.4-.2-.4-.4V14.07c0-.23.17-.4.4-.4h9.19s.4-.06.75.29l1.62,1.65c.35.35.32.75.32.75v7.37ZM184.48,22.19h2.98s.12.03.23-.09l.49-.46c.09-.11.09-.23.09-.23v-2.71s0-.12-.09-.2l-.49-.49c-.11-.09-.23-.09-.23-.09h-2.98v4.27Z" class="cls-1"></path><path d="M207.36,14.07v19.38c0,.2-.17.4-.4.4h-4.56c-.23,0-.43-.2-.52-.4l-3.52-9.65v9.65c0,.2-.2.4-.4.4h-3.44c-.23,0-.4-.2-.4-.4V14.07c0-.23.17-.4.4-.4h4.3c.2,0,.35.14.4.4h.03l3.81,11.15.06.32v-11.47c0-.23.2-.4.4-.4h3.44c.23,0,.4.17.4.4" class="cls-1"></path><path d="M223.57,33.45v.09c-.03.11-.09.2-.17.26-.03,0-.03.03-.06.03,0,0-.03.03-.09.03,0,0-.03.03-.06.03h-3.61c-.2,0-.35-.17-.4-.4l-2.02-7.28-.2-1.44-.17,1.44-2.25,7.28c-.09.26-.2.4-.43.4h-3.61s-.03-.03-.06-.03-.06-.03-.09-.03-.03-.03-.03-.03c-.12-.06-.17-.15-.17-.26-.03,0-.03-.03-.03-.03v-.06l-1.53-19.3c0-.2.17-.4.4-.4h3.41c.23,0,.43.2.43.4l.69,9.82,1.65-9.85c.09-.2.29-.41.52-.41h2.31c.23,0,.43.2.55.41l1.62,9.85.72-9.82c0-.2.17-.4.4-.4h3.44c.2,0,.4.2.4.4l-1.56,19.3Z" class="cls-1"></path></g></svg>